<svg xmlns="http://www.w3.org/2000/svg" version="1.1" xmlns:xlink="http://www.w3.org/1999/xlink" xmlns:svgjs="http://svgjs.com/svgjs" width="1440" height="560" preserveAspectRatio="none" viewBox="0 0 1440 560">
    <g mask="url(&quot;#SvgjsMask1411&quot;)" fill="none">
        <g mask="url(&quot;#SvgjsMask1413&quot;)">
            <path d="M726 558L738 546L738 534M726 570L726 558L726 546L726 534L726 522L726 510" stroke="url(#SvgjsLinearGradient1412)" stroke-width="2"></path>
            <path d="M723 510 a3 3 0 1 0 6 0 a3 3 0 1 0 -6 0zM735 534 a3 3 0 1 0 6 0 a3 3 0 1 0 -6 0z" fill="url(#SvgjsLinearGradient1412)"></path>
            <path d="M702 498L714 486L714 474L714 462L714 450L726 438L738 426L738 414M714 390L702 378L702 366L702 354L702 342M702 426L714 414L714 402L726 390L726 378L726 366M702 450L690 438L690 426L690 414L690 402M702 486L690 474L690 462L690 450M714 570L714 558L714 546L714 534L714 522L714 510L702 498L702 486L702 474L702 462L702 450L702 438L702 426L702 414L702 402L714 390L714 378L714 366L714 354L714 342" stroke="url(#SvgjsLinearGradient1412)" stroke-width="2"></path>
            <path d="M711 342 a3 3 0 1 0 6 0 a3 3 0 1 0 -6 0zM735 414 a3 3 0 1 0 6 0 a3 3 0 1 0 -6 0zM699 342 a3 3 0 1 0 6 0 a3 3 0 1 0 -6 0zM723 366 a3 3 0 1 0 6 0 a3 3 0 1 0 -6 0zM687 402 a3 3 0 1 0 6 0 a3 3 0 1 0 -6 0zM687 450 a3 3 0 1 0 6 0 a3 3 0 1 0 -6 0z" fill="url(#SvgjsLinearGradient1412)"></path>
            <path d="M750 546L762 534L762 522L762 510M750 558L762 546L774 534L774 522L774 510M750 522L738 510L738 498M738 570L750 558L750 546L750 534L750 522L750 510L750 498" stroke="url(#SvgjsLinearGradient1412)" stroke-width="2"></path>
            <path d="M747 498 a3 3 0 1 0 6 0 a3 3 0 1 0 -6 0zM759 510 a3 3 0 1 0 6 0 a3 3 0 1 0 -6 0zM771 510 a3 3 0 1 0 6 0 a3 3 0 1 0 -6 0zM735 498 a3 3 0 1 0 6 0 a3 3 0 1 0 -6 0z" fill="url(#SvgjsLinearGradient1412)"></path>
            <path d="M678 498L690 486M702 522L702 510M702 570L702 558L702 546L702 534L702 522L690 510L678 498L678 486" stroke="url(#SvgjsLinearGradient1412)" stroke-width="2"></path>
            <path d="M675 486 a3 3 0 1 0 6 0 a3 3 0 1 0 -6 0zM687 486 a3 3 0 1 0 6 0 a3 3 0 1 0 -6 0zM699 510 a3 3 0 1 0 6 0 a3 3 0 1 0 -6 0z" fill="url(#SvgjsLinearGradient1412)"></path>
            <path d="M666 462L678 450L678 438L678 426M666 474L654 462L654 450L654 438M666 426L654 414L654 402L654 390L654 378M666 342L666 330L666 318L666 306L666 294M666 354L654 342M690 570L690 558L690 546L690 534L690 522L678 510L666 498L666 486L666 474L666 462L666 450L666 438L666 426L666 414L666 402L666 390L666 378L666 366L666 354L666 342L678 330" stroke="url(#SvgjsLinearGradient1412)" stroke-width="2"></path>
            <path d="M675 330 a3 3 0 1 0 6 0 a3 3 0 1 0 -6 0zM675 426 a3 3 0 1 0 6 0 a3 3 0 1 0 -6 0zM651 438 a3 3 0 1 0 6 0 a3 3 0 1 0 -6 0zM651 378 a3 3 0 1 0 6 0 a3 3 0 1 0 -6 0zM663 294 a3 3 0 1 0 6 0 a3 3 0 1 0 -6 0zM651 342 a3 3 0 1 0 6 0 a3 3 0 1 0 -6 0z" fill="url(#SvgjsLinearGradient1412)"></path>
            <path d="M630 366L630 354L630 342M630 390L642 378M630 378L618 366M630 402L642 390M678 546L666 534L666 522L654 510M678 570L678 558L678 546L678 534L678 522L666 510L654 498L642 486L642 474L642 462L642 450L642 438L642 426L630 414L630 402L630 390L630 378L630 366L618 354L606 342" stroke="url(#SvgjsLinearGradient1412)" stroke-width="2"></path>
            <path d="M603 342 a3 3 0 1 0 6 0 a3 3 0 1 0 -6 0zM627 342 a3 3 0 1 0 6 0 a3 3 0 1 0 -6 0zM639 378 a3 3 0 1 0 6 0 a3 3 0 1 0 -6 0zM615 366 a3 3 0 1 0 6 0 a3 3 0 1 0 -6 0zM639 390 a3 3 0 1 0 6 0 a3 3 0 1 0 -6 0zM651 510 a3 3 0 1 0 6 0 a3 3 0 1 0 -6 0z" fill="url(#SvgjsLinearGradient1412)"></path>
            <path d="M618 438L630 426M630 450L630 438M666 558L666 546M654 534L654 522M666 570L666 558L654 546L654 534L642 522L642 510L642 498L630 486L630 474L630 462L630 450L618 438L618 426L618 414L618 402L618 390" stroke="url(#SvgjsLinearGradient1412)" stroke-width="2"></path>
            <path d="M615 390 a3 3 0 1 0 6 0 a3 3 0 1 0 -6 0zM627 426 a3 3 0 1 0 6 0 a3 3 0 1 0 -6 0zM627 438 a3 3 0 1 0 6 0 a3 3 0 1 0 -6 0zM663 546 a3 3 0 1 0 6 0 a3 3 0 1 0 -6 0zM651 522 a3 3 0 1 0 6 0 a3 3 0 1 0 -6 0z" fill="url(#SvgjsLinearGradient1412)"></path>
            <path d="M786 558L774 546M774 318L786 306L786 294M786 414L774 402L762 390L762 378L762 366L762 354L762 342L762 330L750 318M786 474L774 462L774 450L774 438L774 426M786 402L786 390M774 342L786 330L786 318L798 306L798 294L798 282L810 270L810 258L810 246M786 570L786 558L786 546L786 534L786 522L786 510L786 498L786 486L786 474L786 462L786 450L786 438L786 426L786 414L786 402L774 390L774 378L774 366L774 354L774 342L774 330L774 318L774 306L762 294L762 282L750 270" stroke="url(#SvgjsLinearGradient1412)" stroke-width="2"></path>
            <path d="M747 270 a3 3 0 1 0 6 0 a3 3 0 1 0 -6 0zM771 546 a3 3 0 1 0 6 0 a3 3 0 1 0 -6 0zM783 294 a3 3 0 1 0 6 0 a3 3 0 1 0 -6 0zM747 318 a3 3 0 1 0 6 0 a3 3 0 1 0 -6 0zM771 426 a3 3 0 1 0 6 0 a3 3 0 1 0 -6 0zM783 390 a3 3 0 1 0 6 0 a3 3 0 1 0 -6 0zM807 246 a3 3 0 1 0 6 0 a3 3 0 1 0 -6 0z" fill="url(#SvgjsLinearGradient1412)"></path>
            <path d="M594 330L606 318L606 306L618 294L630 282M630 510L630 498M618 462L606 450M618 474L606 462M594 306L594 294L594 282L594 270L582 258M606 294L606 282L606 270L606 258L606 246M654 570L654 558L642 546L642 534L630 522L630 510L618 498L618 486L618 474L618 462L618 450L606 438L606 426L606 414L606 402L606 390L606 378L606 366L606 354L594 342L594 330L594 318L594 306L606 294L618 282" stroke="url(#SvgjsLinearGradient1412)" stroke-width="2"></path>
            <path d="M615 282 a3 3 0 1 0 6 0 a3 3 0 1 0 -6 0zM627 282 a3 3 0 1 0 6 0 a3 3 0 1 0 -6 0zM627 498 a3 3 0 1 0 6 0 a3 3 0 1 0 -6 0zM603 450 a3 3 0 1 0 6 0 a3 3 0 1 0 -6 0zM603 462 a3 3 0 1 0 6 0 a3 3 0 1 0 -6 0zM579 258 a3 3 0 1 0 6 0 a3 3 0 1 0 -6 0zM603 246 a3 3 0 1 0 6 0 a3 3 0 1 0 -6 0z" fill="url(#SvgjsLinearGradient1412)"></path>
            <path d="M798 510L810 498L810 486L810 474L810 462M798 534L810 522M798 570L798 558L798 546L798 534L798 522L798 510L798 498" stroke="url(#SvgjsLinearGradient1412)" stroke-width="2"></path>
            <path d="M795 498 a3 3 0 1 0 6 0 a3 3 0 1 0 -6 0zM807 462 a3 3 0 1 0 6 0 a3 3 0 1 0 -6 0zM807 522 a3 3 0 1 0 6 0 a3 3 0 1 0 -6 0z" fill="url(#SvgjsLinearGradient1412)"></path>
            <path d="M642 570L642 558L630 546L630 534L618 522" stroke="url(#SvgjsLinearGradient1412)" stroke-width="2"></path>
            <path d="M615 522 a3 3 0 1 0 6 0 a3 3 0 1 0 -6 0z" fill="url(#SvgjsLinearGradient1412)"></path>
            <path d="M810 570L810 558L810 546" stroke="url(#SvgjsLinearGradient1412)" stroke-width="2"></path>
            <path d="M807 546 a3 3 0 1 0 6 0 a3 3 0 1 0 -6 0z" fill="url(#SvgjsLinearGradient1412)"></path>
            <path d="M630 570L630 558L618 546L618 534L606 522L606 510" stroke="url(#SvgjsLinearGradient1412)" stroke-width="2"></path>
            <path d="M603 510 a3 3 0 1 0 6 0 a3 3 0 1 0 -6 0z" fill="url(#SvgjsLinearGradient1412)"></path>
            <path d="M822 510L834 498L834 486L834 474L834 462M822 570L822 558L822 546L822 534L822 522L822 510L822 498L822 486L822 474L822 462" stroke="url(#SvgjsLinearGradient1412)" stroke-width="2"></path>
            <path d="M819 462 a3 3 0 1 0 6 0 a3 3 0 1 0 -6 0zM831 462 a3 3 0 1 0 6 0 a3 3 0 1 0 -6 0z" fill="url(#SvgjsLinearGradient1412)"></path>
            <path d="M594 378L582 366L582 354L570 342M594 390L582 378L570 366L570 354M570 282L582 270M594 402L582 390L570 378M570 294L582 282M594 414L582 402M618 570L618 558L606 546L606 534L594 522L594 510L594 498L594 486L594 474L594 462L594 450L594 438L594 426L594 414L594 402L594 390L594 378L594 366L594 354L582 342L582 330L582 318L582 306L570 294L570 282L570 270L570 258" stroke="url(#SvgjsLinearGradient1412)" stroke-width="2"></path>
            <path d="M567 258 a3 3 0 1 0 6 0 a3 3 0 1 0 -6 0zM567 342 a3 3 0 1 0 6 0 a3 3 0 1 0 -6 0zM567 354 a3 3 0 1 0 6 0 a3 3 0 1 0 -6 0zM579 270 a3 3 0 1 0 6 0 a3 3 0 1 0 -6 0zM567 378 a3 3 0 1 0 6 0 a3 3 0 1 0 -6 0zM579 282 a3 3 0 1 0 6 0 a3 3 0 1 0 -6 0zM579 402 a3 3 0 1 0 6 0 a3 3 0 1 0 -6 0z" fill="url(#SvgjsLinearGradient1412)"></path>
            <path d="M834 534L846 522L846 510L846 498L846 486M834 570L834 558L834 546L834 534L834 522" stroke="url(#SvgjsLinearGradient1412)" stroke-width="2"></path>
            <path d="M831 522 a3 3 0 1 0 6 0 a3 3 0 1 0 -6 0zM843 486 a3 3 0 1 0 6 0 a3 3 0 1 0 -6 0z" fill="url(#SvgjsLinearGradient1412)"></path>
            <path d="M582 450L570 438L570 426L570 414L570 402M606 570L606 558L594 546L594 534L582 522L582 510L582 498L582 486L582 474L582 462L582 450L582 438L582 426" stroke="url(#SvgjsLinearGradient1412)" stroke-width="2"></path>
            <path d="M579 426 a3 3 0 1 0 6 0 a3 3 0 1 0 -6 0zM567 402 a3 3 0 1 0 6 0 a3 3 0 1 0 -6 0z" fill="url(#SvgjsLinearGradient1412)"></path>
            <path d="M870 294L858 282L858 270L858 258L858 246M870 450L858 438M870 438L882 426M870 306L858 294L846 282M870 486L858 474L858 462L858 450L846 438L846 426L834 414L834 402L834 390M870 414L882 402L882 390L882 378L882 366M846 570L846 558L846 546L858 534L858 522L870 510L870 498L870 486L870 474L870 462L870 450L870 438L870 426L870 414L870 402L870 390L870 378L870 366L870 354L870 342L870 330L870 318L870 306L870 294L870 282" stroke="url(#SvgjsLinearGradient1412)" stroke-width="2"></path>
            <path d="M867 282 a3 3 0 1 0 6 0 a3 3 0 1 0 -6 0zM855 246 a3 3 0 1 0 6 0 a3 3 0 1 0 -6 0zM855 438 a3 3 0 1 0 6 0 a3 3 0 1 0 -6 0zM879 426 a3 3 0 1 0 6 0 a3 3 0 1 0 -6 0zM843 282 a3 3 0 1 0 6 0 a3 3 0 1 0 -6 0zM831 390 a3 3 0 1 0 6 0 a3 3 0 1 0 -6 0zM879 366 a3 3 0 1 0 6 0 a3 3 0 1 0 -6 0z" fill="url(#SvgjsLinearGradient1412)"></path>
            <path d="M546 378L558 366L558 354L558 342L558 330M570 474L558 462M546 354L534 342M558 390L558 378M594 570L594 558L582 546L582 534L570 522L570 510L570 498L570 486L570 474L570 462L558 450L558 438L558 426L558 414L558 402L558 390L546 378L546 366L546 354L546 342" stroke="url(#SvgjsLinearGradient1412)" stroke-width="2"></path>
            <path d="M543 342 a3 3 0 1 0 6 0 a3 3 0 1 0 -6 0zM555 330 a3 3 0 1 0 6 0 a3 3 0 1 0 -6 0zM555 462 a3 3 0 1 0 6 0 a3 3 0 1 0 -6 0zM531 342 a3 3 0 1 0 6 0 a3 3 0 1 0 -6 0zM555 378 a3 3 0 1 0 6 0 a3 3 0 1 0 -6 0z" fill="url(#SvgjsLinearGradient1412)"></path>
            <path d="M894 378L906 366L906 354M894 426L906 414L906 402L906 390L906 378M858 558L858 546M882 318L894 306L894 294L894 282M894 462L882 450L882 438M882 342L894 330L894 318L906 306L906 294M858 570L858 558L870 546L870 534L870 522L882 510L882 498L882 486L882 474L894 462L894 450L894 438L894 426L894 414L894 402L894 390L894 378L894 366L894 354L882 342L882 330L882 318L882 306L882 294" stroke="url(#SvgjsLinearGradient1412)" stroke-width="2"></path>
            <path d="M879 294 a3 3 0 1 0 6 0 a3 3 0 1 0 -6 0zM903 354 a3 3 0 1 0 6 0 a3 3 0 1 0 -6 0zM903 378 a3 3 0 1 0 6 0 a3 3 0 1 0 -6 0zM855 546 a3 3 0 1 0 6 0 a3 3 0 1 0 -6 0zM891 282 a3 3 0 1 0 6 0 a3 3 0 1 0 -6 0zM879 438 a3 3 0 1 0 6 0 a3 3 0 1 0 -6 0zM903 294 a3 3 0 1 0 6 0 a3 3 0 1 0 -6 0z" fill="url(#SvgjsLinearGradient1412)"></path>
            <path d="M534 258L522 246L510 234L510 222M546 498L558 486M546 414L534 402L534 390M534 270L546 258M534 306L522 294L522 282M534 318L546 306M522 342L522 330M582 570L582 558L570 546L570 534L558 522L558 510L546 498L546 486L546 474L546 462L546 450L546 438L546 426L546 414L546 402L546 390L534 378L534 366L522 354L522 342L534 330L534 318L534 306L534 294L534 282L534 270L534 258L534 246L534 234" stroke="url(#SvgjsLinearGradient1412)" stroke-width="2"></path>
            <path d="M531 234 a3 3 0 1 0 6 0 a3 3 0 1 0 -6 0zM507 222 a3 3 0 1 0 6 0 a3 3 0 1 0 -6 0zM555 486 a3 3 0 1 0 6 0 a3 3 0 1 0 -6 0zM531 390 a3 3 0 1 0 6 0 a3 3 0 1 0 -6 0zM543 258 a3 3 0 1 0 6 0 a3 3 0 1 0 -6 0zM519 282 a3 3 0 1 0 6 0 a3 3 0 1 0 -6 0zM543 306 a3 3 0 1 0 6 0 a3 3 0 1 0 -6 0zM519 330 a3 3 0 1 0 6 0 a3 3 0 1 0 -6 0z" fill="url(#SvgjsLinearGradient1412)"></path>
            <path d="M918 426L918 414L918 402L918 390M906 486L918 474M930 354L918 342L906 330M930 378L918 366L918 354M930 366L942 354L942 342L942 330L942 318L942 306L942 294L942 282M870 570L870 558L882 546L882 534L882 522L894 510L906 498L906 486L906 474L906 462L906 450L906 438L918 426L930 414L930 402L930 390L930 378L930 366L930 354L930 342L930 330" stroke="url(#SvgjsLinearGradient1412)" stroke-width="2"></path>
            <path d="M927 330 a3 3 0 1 0 6 0 a3 3 0 1 0 -6 0zM915 390 a3 3 0 1 0 6 0 a3 3 0 1 0 -6 0zM915 474 a3 3 0 1 0 6 0 a3 3 0 1 0 -6 0zM903 330 a3 3 0 1 0 6 0 a3 3 0 1 0 -6 0zM915 354 a3 3 0 1 0 6 0 a3 3 0 1 0 -6 0zM939 282 a3 3 0 1 0 6 0 a3 3 0 1 0 -6 0z" fill="url(#SvgjsLinearGradient1412)"></path>
            <path d="M570 570L570 558L558 546L558 534L546 522L546 510L534 498L534 486L534 474L534 462" stroke="url(#SvgjsLinearGradient1412)" stroke-width="2"></path>
            <path d="M531 462 a3 3 0 1 0 6 0 a3 3 0 1 0 -6 0z" fill="url(#SvgjsLinearGradient1412)"></path>
            <path d="M546 546L546 534M522 498L510 486M522 438L534 426L534 414M558 570L558 558L546 546L534 534L534 522L534 510L522 498L522 486L522 474L522 462L522 450L522 438L522 426L522 414L522 402L522 390" stroke="url(#SvgjsLinearGradient1412)" stroke-width="2"></path>
            <path d="M519 390 a3 3 0 1 0 6 0 a3 3 0 1 0 -6 0zM543 534 a3 3 0 1 0 6 0 a3 3 0 1 0 -6 0zM507 486 a3 3 0 1 0 6 0 a3 3 0 1 0 -6 0zM531 414 a3 3 0 1 0 6 0 a3 3 0 1 0 -6 0z" fill="url(#SvgjsLinearGradient1412)"></path>
            <path d="M918 450L930 438M918 498L918 486M918 462L930 450M930 474L930 462M894 570L894 558L894 546L894 534L894 522L906 510L918 498L930 486L930 474L918 462L918 450L918 438L930 426L942 414L942 402L954 390" stroke="url(#SvgjsLinearGradient1412)" stroke-width="2"></path>
            <path d="M951 390 a3 3 0 1 0 6 0 a3 3 0 1 0 -6 0zM927 438 a3 3 0 1 0 6 0 a3 3 0 1 0 -6 0zM915 486 a3 3 0 1 0 6 0 a3 3 0 1 0 -6 0zM927 450 a3 3 0 1 0 6 0 a3 3 0 1 0 -6 0zM927 462 a3 3 0 1 0 6 0 a3 3 0 1 0 -6 0z" fill="url(#SvgjsLinearGradient1412)"></path>
            <path d="M522 522L510 510L510 498M546 570L546 558L534 546L522 534L522 522L522 510" stroke="url(#SvgjsLinearGradient1412)" stroke-width="2"></path>
            <path d="M519 510 a3 3 0 1 0 6 0 a3 3 0 1 0 -6 0zM507 498 a3 3 0 1 0 6 0 a3 3 0 1 0 -6 0z" fill="url(#SvgjsLinearGradient1412)"></path>
            <path d="M966 306L966 294L966 282L966 270L966 258L966 246L966 234M966 330L954 318L954 306M954 270L942 258L942 246M966 342L954 330M966 354L954 342M966 366L954 354M966 378L954 366M906 570L906 558L906 546L906 534L906 522L918 510L930 498L942 486L942 474L942 462L942 450L942 438L942 426L954 414L954 402L966 390L966 378L966 366L966 354L966 342L966 330L966 318L966 306L954 294L954 282L954 270L954 258L954 246" stroke="url(#SvgjsLinearGradient1412)" stroke-width="2"></path>
            <path d="M951 246 a3 3 0 1 0 6 0 a3 3 0 1 0 -6 0zM963 234 a3 3 0 1 0 6 0 a3 3 0 1 0 -6 0zM951 306 a3 3 0 1 0 6 0 a3 3 0 1 0 -6 0zM939 246 a3 3 0 1 0 6 0 a3 3 0 1 0 -6 0zM951 330 a3 3 0 1 0 6 0 a3 3 0 1 0 -6 0zM951 342 a3 3 0 1 0 6 0 a3 3 0 1 0 -6 0zM951 354 a3 3 0 1 0 6 0 a3 3 0 1 0 -6 0zM951 366 a3 3 0 1 0 6 0 a3 3 0 1 0 -6 0z" fill="url(#SvgjsLinearGradient1412)"></path>
            <path d="M534 570L534 558L522 546L510 534" stroke="url(#SvgjsLinearGradient1412)" stroke-width="2"></path>
            <path d="M507 534 a3 3 0 1 0 6 0 a3 3 0 1 0 -6 0z" fill="url(#SvgjsLinearGradient1412)"></path>
            <path d="M978 258L990 246L990 234L990 222M978 270L990 258L1002 246L1002 234L1002 222M918 570L918 558L918 546L918 534L918 522L930 510L942 498L954 486L954 474L954 462L954 450L954 438L954 426L966 414L966 402L978 390L978 378L978 366L978 354L978 342L978 330L978 318L978 306L978 294L978 282L978 270L978 258L978 246L978 234L978 222" stroke="url(#SvgjsLinearGradient1412)" stroke-width="2"></path>
            <path d="M975 222 a3 3 0 1 0 6 0 a3 3 0 1 0 -6 0zM987 222 a3 3 0 1 0 6 0 a3 3 0 1 0 -6 0zM999 222 a3 3 0 1 0 6 0 a3 3 0 1 0 -6 0z" fill="url(#SvgjsLinearGradient1412)"></path>
            <path d="M510 474L498 462L498 450L498 438M498 522L486 510M510 426L498 414L486 402L486 390L498 378L498 366M498 498L486 486L486 474L486 462L486 450M522 570L522 558L510 546L498 534L498 522L498 510L498 498L498 486L510 474L510 462L510 450L510 438L510 426L510 414L510 402L510 390L510 378L522 366" stroke="url(#SvgjsLinearGradient1412)" stroke-width="2"></path>
            <path d="M519 366 a3 3 0 1 0 6 0 a3 3 0 1 0 -6 0zM495 438 a3 3 0 1 0 6 0 a3 3 0 1 0 -6 0zM483 510 a3 3 0 1 0 6 0 a3 3 0 1 0 -6 0zM495 366 a3 3 0 1 0 6 0 a3 3 0 1 0 -6 0zM483 450 a3 3 0 1 0 6 0 a3 3 0 1 0 -6 0z" fill="url(#SvgjsLinearGradient1412)"></path>
            <path d="M990 294L1002 282L1002 270L1002 258M990 318L1002 306L1002 294L1014 282L1014 270M990 390L1002 378L1002 366M978 414L990 402L1002 390M990 342L1002 330L1002 318L1014 306L1014 294M930 570L930 558L930 546L930 534L930 522L942 510L954 498L966 486L966 474L966 462L966 450L966 438L966 426L978 414L978 402L990 390L990 378L990 366L990 354L990 342L990 330L990 318L990 306L990 294L990 282" stroke="url(#SvgjsLinearGradient1412)" stroke-width="2"></path>
            <path d="M987 282 a3 3 0 1 0 6 0 a3 3 0 1 0 -6 0zM999 258 a3 3 0 1 0 6 0 a3 3 0 1 0 -6 0zM1011 270 a3 3 0 1 0 6 0 a3 3 0 1 0 -6 0zM999 366 a3 3 0 1 0 6 0 a3 3 0 1 0 -6 0zM999 390 a3 3 0 1 0 6 0 a3 3 0 1 0 -6 0zM1011 294 a3 3 0 1 0 6 0 a3 3 0 1 0 -6 0z" fill="url(#SvgjsLinearGradient1412)"></path>
            <path d="M474 402L462 390L462 378L462 366M486 342L498 330L498 318L498 306M486 294L498 282M486 330L474 318L474 306L474 294L462 282M486 534L486 522M474 498L462 486L462 474L462 462M510 570L510 558L498 546L486 534L474 522L474 510L474 498L474 486L474 474L474 462L474 450L474 438L474 426L474 414L474 402L474 390L486 378L486 366L486 354L486 342L486 330L486 318L486 306L486 294L486 282" stroke="url(#SvgjsLinearGradient1412)" stroke-width="2"></path>
            <path d="M483 282 a3 3 0 1 0 6 0 a3 3 0 1 0 -6 0zM459 366 a3 3 0 1 0 6 0 a3 3 0 1 0 -6 0zM495 306 a3 3 0 1 0 6 0 a3 3 0 1 0 -6 0zM495 282 a3 3 0 1 0 6 0 a3 3 0 1 0 -6 0zM459 282 a3 3 0 1 0 6 0 a3 3 0 1 0 -6 0zM483 522 a3 3 0 1 0 6 0 a3 3 0 1 0 -6 0zM459 462 a3 3 0 1 0 6 0 a3 3 0 1 0 -6 0z" fill="url(#SvgjsLinearGradient1412)"></path>
            <path d="M942 570L942 558L942 546L942 534L942 522L954 510L966 498L978 486L978 474L978 462" stroke="url(#SvgjsLinearGradient1412)" stroke-width="2"></path>
            <path d="M975 462 a3 3 0 1 0 6 0 a3 3 0 1 0 -6 0z" fill="url(#SvgjsLinearGradient1412)"></path>
            <path d="M498 570L498 558L486 546L474 534L462 522" stroke="url(#SvgjsLinearGradient1412)" stroke-width="2"></path>
            <path d="M459 522 a3 3 0 1 0 6 0 a3 3 0 1 0 -6 0z" fill="url(#SvgjsLinearGradient1412)"></path>
            <path d="M990 450L978 438M990 438L1002 426M1002 414L1002 402M1014 366L1014 354M954 570L954 558L954 546L954 534L954 522L966 510L978 498L990 486L990 474L990 462L990 450L990 438L990 426L1002 414L1014 402L1014 390L1014 378L1014 366L1002 354" stroke="url(#SvgjsLinearGradient1412)" stroke-width="2"></path>
            <path d="M999 354 a3 3 0 1 0 6 0 a3 3 0 1 0 -6 0zM975 438 a3 3 0 1 0 6 0 a3 3 0 1 0 -6 0zM999 426 a3 3 0 1 0 6 0 a3 3 0 1 0 -6 0zM999 402 a3 3 0 1 0 6 0 a3 3 0 1 0 -6 0zM1011 354 a3 3 0 1 0 6 0 a3 3 0 1 0 -6 0z" fill="url(#SvgjsLinearGradient1412)"></path>
            <path d="M486 570L486 558L474 546L462 534L450 522L450 510L450 498L450 486L450 474L450 462" stroke="url(#SvgjsLinearGradient1412)" stroke-width="2"></path>
            <path d="M447 462 a3 3 0 1 0 6 0 a3 3 0 1 0 -6 0z" fill="url(#SvgjsLinearGradient1412)"></path>
            <path d="M1026 342L1038 330M1026 366L1038 354M1026 390L1038 378L1038 366M1002 462L1002 450L1002 438M1026 330L1014 318M966 570L966 558L966 546L966 534L966 522L978 510L990 498L1002 486L1002 474L1002 462L1014 450L1014 438L1014 426L1014 414L1026 402L1026 390L1026 378L1026 366L1026 354L1026 342L1026 330L1026 318" stroke="url(#SvgjsLinearGradient1412)" stroke-width="2"></path>
            <path d="M1023 318 a3 3 0 1 0 6 0 a3 3 0 1 0 -6 0zM1035 330 a3 3 0 1 0 6 0 a3 3 0 1 0 -6 0zM1035 354 a3 3 0 1 0 6 0 a3 3 0 1 0 -6 0zM1035 366 a3 3 0 1 0 6 0 a3 3 0 1 0 -6 0zM999 438 a3 3 0 1 0 6 0 a3 3 0 1 0 -6 0zM1011 318 a3 3 0 1 0 6 0 a3 3 0 1 0 -6 0z" fill="url(#SvgjsLinearGradient1412)"></path>
            <path d="M438 426L426 414M438 366L426 354L426 342L414 330M438 438L450 426L450 414L450 402L450 390L450 378L450 366M438 390L426 378L426 366M438 330L450 318L450 306L450 294L450 282L450 270L450 258M438 354L450 342L450 330L462 318L462 306L462 294M474 570L474 558L462 546L450 534L438 522L438 510L438 498L438 486L438 474L438 462L438 450L438 438L438 426L438 414L438 402L438 390L438 378L438 366L438 354L438 342L438 330L426 318L426 306L438 294L438 282" stroke="url(#SvgjsLinearGradient1412)" stroke-width="2"></path>
            <path d="M435 282 a3 3 0 1 0 6 0 a3 3 0 1 0 -6 0zM423 414 a3 3 0 1 0 6 0 a3 3 0 1 0 -6 0zM411 330 a3 3 0 1 0 6 0 a3 3 0 1 0 -6 0zM447 366 a3 3 0 1 0 6 0 a3 3 0 1 0 -6 0zM423 366 a3 3 0 1 0 6 0 a3 3 0 1 0 -6 0zM447 258 a3 3 0 1 0 6 0 a3 3 0 1 0 -6 0zM459 294 a3 3 0 1 0 6 0 a3 3 0 1 0 -6 0z" fill="url(#SvgjsLinearGradient1412)"></path>
            <path d="M1026 438L1038 426L1038 414M978 570L978 558L978 546L978 534L978 522L990 510L1002 498L1014 486L1014 474L1014 462L1026 450L1026 438L1026 426L1026 414L1038 402" stroke="url(#SvgjsLinearGradient1412)" stroke-width="2"></path>
            <path d="M1035 402 a3 3 0 1 0 6 0 a3 3 0 1 0 -6 0zM1035 414 a3 3 0 1 0 6 0 a3 3 0 1 0 -6 0z" fill="url(#SvgjsLinearGradient1412)"></path>
            <path d="M414 450L402 438L402 426L402 414M426 498L414 486L414 474M426 510L414 498M462 570L462 558L450 546L438 534L426 522L426 510L426 498L426 486L426 474L414 462L414 450L414 438" stroke="url(#SvgjsLinearGradient1412)" stroke-width="2"></path>
            <path d="M411 438 a3 3 0 1 0 6 0 a3 3 0 1 0 -6 0zM399 414 a3 3 0 1 0 6 0 a3 3 0 1 0 -6 0zM411 474 a3 3 0 1 0 6 0 a3 3 0 1 0 -6 0zM411 498 a3 3 0 1 0 6 0 a3 3 0 1 0 -6 0z" fill="url(#SvgjsLinearGradient1412)"></path>
            <path d="M990 570L990 558L990 546L990 534" stroke="url(#SvgjsLinearGradient1412)" stroke-width="2"></path>
            <path d="M987 534 a3 3 0 1 0 6 0 a3 3 0 1 0 -6 0z" fill="url(#SvgjsLinearGradient1412)"></path>
            <path d="M450 570L450 558L438 546L426 534L414 522" stroke="url(#SvgjsLinearGradient1412)" stroke-width="2"></path>
            <path d="M411 522 a3 3 0 1 0 6 0 a3 3 0 1 0 -6 0z" fill="url(#SvgjsLinearGradient1412)"></path>
            <path d="M1014 522L1002 510M1026 474L1038 462M1050 354L1062 342L1074 330M1038 450L1038 438M1050 378L1062 366M1002 570L1002 558L1002 546L1002 534L1014 522L1014 510L1014 498L1026 486L1026 474L1026 462L1038 450L1050 438L1050 426L1050 414L1050 402L1050 390L1050 378L1050 366L1050 354L1050 342" stroke="url(#SvgjsLinearGradient1412)" stroke-width="2"></path>
            <path d="M1047 342 a3 3 0 1 0 6 0 a3 3 0 1 0 -6 0zM999 510 a3 3 0 1 0 6 0 a3 3 0 1 0 -6 0zM1035 462 a3 3 0 1 0 6 0 a3 3 0 1 0 -6 0zM1071 330 a3 3 0 1 0 6 0 a3 3 0 1 0 -6 0zM1035 438 a3 3 0 1 0 6 0 a3 3 0 1 0 -6 0zM1059 366 a3 3 0 1 0 6 0 a3 3 0 1 0 -6 0z" fill="url(#SvgjsLinearGradient1412)"></path>
            <path d="M390 378L402 366M390 330L402 318L402 306L414 294M402 498L390 486M402 510L390 498M390 402L402 390L402 378M390 282L378 270L378 258L378 246M438 570L438 558L426 546L414 534L402 522L402 510L402 498L402 486L402 474L402 462L390 450L390 438L390 426L390 414L390 402L390 390L390 378L390 366L390 354L390 342L390 330L390 318L390 306L390 294L390 282L390 270" stroke="url(#SvgjsLinearGradient1412)" stroke-width="2"></path>
            <path d="M387 270 a3 3 0 1 0 6 0 a3 3 0 1 0 -6 0zM399 366 a3 3 0 1 0 6 0 a3 3 0 1 0 -6 0zM411 294 a3 3 0 1 0 6 0 a3 3 0 1 0 -6 0zM387 486 a3 3 0 1 0 6 0 a3 3 0 1 0 -6 0zM387 498 a3 3 0 1 0 6 0 a3 3 0 1 0 -6 0zM399 378 a3 3 0 1 0 6 0 a3 3 0 1 0 -6 0zM375 246 a3 3 0 1 0 6 0 a3 3 0 1 0 -6 0z" fill="url(#SvgjsLinearGradient1412)"></path>
            <path d="M1014 546L1014 534M1014 570L1014 558L1014 546L1026 534L1026 522L1026 510L1026 498L1038 486" stroke="url(#SvgjsLinearGradient1412)" stroke-width="2"></path>
            <path d="M1035 486 a3 3 0 1 0 6 0 a3 3 0 1 0 -6 0zM1011 534 a3 3 0 1 0 6 0 a3 3 0 1 0 -6 0z" fill="url(#SvgjsLinearGradient1412)"></path>
            <path d="M426 570L426 558L414 546L402 534L390 522" stroke="url(#SvgjsLinearGradient1412)" stroke-width="2"></path>
            <path d="M387 522 a3 3 0 1 0 6 0 a3 3 0 1 0 -6 0z" fill="url(#SvgjsLinearGradient1412)"></path>
            <path d="M1062 426L1074 414L1074 402L1086 390L1086 378M1062 450L1074 438L1074 426L1086 414L1086 402M1038 510L1050 498L1062 486L1062 474M1026 570L1026 558L1026 546L1038 534L1038 522L1038 510L1038 498L1050 486L1050 474L1062 462L1062 450L1062 438L1062 426L1062 414L1062 402L1074 390" stroke="url(#SvgjsLinearGradient1412)" stroke-width="2"></path>
            <path d="M1071 390 a3 3 0 1 0 6 0 a3 3 0 1 0 -6 0zM1083 378 a3 3 0 1 0 6 0 a3 3 0 1 0 -6 0zM1083 402 a3 3 0 1 0 6 0 a3 3 0 1 0 -6 0zM1059 474 a3 3 0 1 0 6 0 a3 3 0 1 0 -6 0z" fill="url(#SvgjsLinearGradient1412)"></path>
            <path d="M378 474L390 462M378 306L366 294L354 282L354 270L354 258L354 246M414 570L414 558L402 546L390 534L378 522L378 510L378 498L378 486L378 474L378 462L378 450L378 438L378 426L378 414L378 402L378 390L378 378L378 366L378 354L378 342L378 330L378 318L378 306L378 294" stroke="url(#SvgjsLinearGradient1412)" stroke-width="2"></path>
            <path d="M375 294 a3 3 0 1 0 6 0 a3 3 0 1 0 -6 0zM387 462 a3 3 0 1 0 6 0 a3 3 0 1 0 -6 0zM351 246 a3 3 0 1 0 6 0 a3 3 0 1 0 -6 0z" fill="url(#SvgjsLinearGradient1412)"></path>
            <path d="M1038 570L1038 558L1038 546" stroke="url(#SvgjsLinearGradient1412)" stroke-width="2"></path>
            <path d="M1035 546 a3 3 0 1 0 6 0 a3 3 0 1 0 -6 0z" fill="url(#SvgjsLinearGradient1412)"></path>
            <path d="M366 426L354 414L354 402M366 330L354 318L354 306L354 294L342 282M402 570L402 558L390 546L378 534L366 522L366 510L366 498L366 486L366 474L366 462L366 450L366 438L366 426L366 414L366 402L366 390L366 378L366 366L366 354L366 342L366 330L366 318" stroke="url(#SvgjsLinearGradient1412)" stroke-width="2"></path>
            <path d="M363 318 a3 3 0 1 0 6 0 a3 3 0 1 0 -6 0zM351 402 a3 3 0 1 0 6 0 a3 3 0 1 0 -6 0zM339 282 a3 3 0 1 0 6 0 a3 3 0 1 0 -6 0z" fill="url(#SvgjsLinearGradient1412)"></path>
            <path d="M1050 546L1062 534L1062 522M1050 558L1062 546M1050 570L1050 558L1050 546L1050 534L1050 522" stroke="url(#SvgjsLinearGradient1412)" stroke-width="2"></path>
            <path d="M1047 522 a3 3 0 1 0 6 0 a3 3 0 1 0 -6 0zM1059 522 a3 3 0 1 0 6 0 a3 3 0 1 0 -6 0zM1059 546 a3 3 0 1 0 6 0 a3 3 0 1 0 -6 0z" fill="url(#SvgjsLinearGradient1412)"></path>
            <path d="M354 366L342 354L342 342L342 330M354 498L342 486L342 474L342 462M354 378L342 366M354 438L354 426M354 450L342 438M390 570L390 558L378 546L366 534L354 522L354 510L354 498L354 486L354 474L354 462L354 450L354 438L342 426L342 414L342 402L354 390L354 378L354 366L354 354L354 342" stroke="url(#SvgjsLinearGradient1412)" stroke-width="2"></path>
            <path d="M351 342 a3 3 0 1 0 6 0 a3 3 0 1 0 -6 0zM339 330 a3 3 0 1 0 6 0 a3 3 0 1 0 -6 0zM339 462 a3 3 0 1 0 6 0 a3 3 0 1 0 -6 0zM339 366 a3 3 0 1 0 6 0 a3 3 0 1 0 -6 0zM351 426 a3 3 0 1 0 6 0 a3 3 0 1 0 -6 0zM339 438 a3 3 0 1 0 6 0 a3 3 0 1 0 -6 0z" fill="url(#SvgjsLinearGradient1412)"></path>
            <path d="M1074 486L1086 474L1086 462L1086 450L1098 438M1074 534L1086 522L1086 510L1086 498M1074 510L1062 498M1062 570L1074 558L1074 546L1074 534L1074 522L1074 510L1074 498L1074 486L1074 474" stroke="url(#SvgjsLinearGradient1412)" stroke-width="2"></path>
            <path d="M1071 474 a3 3 0 1 0 6 0 a3 3 0 1 0 -6 0zM1095 438 a3 3 0 1 0 6 0 a3 3 0 1 0 -6 0zM1083 498 a3 3 0 1 0 6 0 a3 3 0 1 0 -6 0zM1059 498 a3 3 0 1 0 6 0 a3 3 0 1 0 -6 0z" fill="url(#SvgjsLinearGradient1412)"></path>
            <path d="M330 318L342 306L342 294M318 258L330 246L330 234L330 222M330 294L318 282L318 270L306 258M342 510L342 498M330 390L342 378M330 270L330 258L342 246L342 234M378 570L378 558L366 546L354 534L342 522L342 510L330 498L330 486L330 474L330 462L330 450L330 438L330 426L330 414L330 402L330 390L330 378L330 366L330 354L330 342L330 330L330 318L330 306L330 294L330 282L330 270L318 258L318 246" stroke="url(#SvgjsLinearGradient1412)" stroke-width="2"></path>
            <path d="M315 246 a3 3 0 1 0 6 0 a3 3 0 1 0 -6 0zM339 294 a3 3 0 1 0 6 0 a3 3 0 1 0 -6 0zM327 222 a3 3 0 1 0 6 0 a3 3 0 1 0 -6 0zM303 258 a3 3 0 1 0 6 0 a3 3 0 1 0 -6 0zM339 498 a3 3 0 1 0 6 0 a3 3 0 1 0 -6 0zM339 378 a3 3 0 1 0 6 0 a3 3 0 1 0 -6 0zM339 234 a3 3 0 1 0 6 0 a3 3 0 1 0 -6 0z" fill="url(#SvgjsLinearGradient1412)"></path>
            <path d="M318 486L306 474L306 462L306 450M318 498L306 486L294 474L294 462L294 450M318 390L306 378L306 366M318 330L306 318L306 306L294 294L282 282L282 270L282 258L282 246M318 414L306 402L306 390L294 378L294 366L306 354L306 342M366 570L366 558L354 546L342 534L330 522L330 510L318 498L318 486L318 474L318 462L318 450L318 438L318 426L318 414L318 402L318 390L318 378L318 366L318 354L318 342L318 330L318 318L318 306" stroke="url(#SvgjsLinearGradient1412)" stroke-width="2"></path>
            <path d="M315 306 a3 3 0 1 0 6 0 a3 3 0 1 0 -6 0zM303 450 a3 3 0 1 0 6 0 a3 3 0 1 0 -6 0zM291 450 a3 3 0 1 0 6 0 a3 3 0 1 0 -6 0zM303 366 a3 3 0 1 0 6 0 a3 3 0 1 0 -6 0zM279 246 a3 3 0 1 0 6 0 a3 3 0 1 0 -6 0zM303 342 a3 3 0 1 0 6 0 a3 3 0 1 0 -6 0z" fill="url(#SvgjsLinearGradient1412)"></path>
        </g>
    </g>
    <defs>
        <mask id="SvgjsMask1411">
            <rect width="1440" height="560" fill="#ffffff"></rect>
        </mask>
        <linearGradient x1="0" y1="378" x2="1440" y2="378" gradientUnits="userSpaceOnUse" id="SvgjsLinearGradient1412">
            <stop stop-color="#3a7cc3" offset="0"></stop>
            <stop stop-color="#dd1133" offset="1"></stop>
        </linearGradient>
        <mask id="SvgjsMask1413">
            <rect width="1440" height="560" fill="white"></rect>
            <path d="M724.5 510 a1.5 1.5 0 1 0 3 0 a1.5 1.5 0 1 0 -3 0zM736.5 534 a1.5 1.5 0 1 0 3 0 a1.5 1.5 0 1 0 -3 0z" fill="black"></path>
            <path d="M712.5 342 a1.5 1.5 0 1 0 3 0 a1.5 1.5 0 1 0 -3 0zM736.5 414 a1.5 1.5 0 1 0 3 0 a1.5 1.5 0 1 0 -3 0zM700.5 342 a1.5 1.5 0 1 0 3 0 a1.5 1.5 0 1 0 -3 0zM724.5 366 a1.5 1.5 0 1 0 3 0 a1.5 1.5 0 1 0 -3 0zM688.5 402 a1.5 1.5 0 1 0 3 0 a1.5 1.5 0 1 0 -3 0zM688.5 450 a1.5 1.5 0 1 0 3 0 a1.5 1.5 0 1 0 -3 0z" fill="black"></path>
            <path d="M748.5 498 a1.5 1.5 0 1 0 3 0 a1.5 1.5 0 1 0 -3 0zM760.5 510 a1.5 1.5 0 1 0 3 0 a1.5 1.5 0 1 0 -3 0zM772.5 510 a1.5 1.5 0 1 0 3 0 a1.5 1.5 0 1 0 -3 0zM736.5 498 a1.5 1.5 0 1 0 3 0 a1.5 1.5 0 1 0 -3 0z" fill="black"></path>
            <path d="M676.5 486 a1.5 1.5 0 1 0 3 0 a1.5 1.5 0 1 0 -3 0zM688.5 486 a1.5 1.5 0 1 0 3 0 a1.5 1.5 0 1 0 -3 0zM700.5 510 a1.5 1.5 0 1 0 3 0 a1.5 1.5 0 1 0 -3 0z" fill="black"></path>
            <path d="M676.5 330 a1.5 1.5 0 1 0 3 0 a1.5 1.5 0 1 0 -3 0zM676.5 426 a1.5 1.5 0 1 0 3 0 a1.5 1.5 0 1 0 -3 0zM652.5 438 a1.5 1.5 0 1 0 3 0 a1.5 1.5 0 1 0 -3 0zM652.5 378 a1.5 1.5 0 1 0 3 0 a1.5 1.5 0 1 0 -3 0zM664.5 294 a1.5 1.5 0 1 0 3 0 a1.5 1.5 0 1 0 -3 0zM652.5 342 a1.5 1.5 0 1 0 3 0 a1.5 1.5 0 1 0 -3 0z" fill="black"></path>
            <path d="M604.5 342 a1.5 1.5 0 1 0 3 0 a1.5 1.5 0 1 0 -3 0zM628.5 342 a1.5 1.5 0 1 0 3 0 a1.5 1.5 0 1 0 -3 0zM640.5 378 a1.5 1.5 0 1 0 3 0 a1.5 1.5 0 1 0 -3 0zM616.5 366 a1.5 1.5 0 1 0 3 0 a1.5 1.5 0 1 0 -3 0zM640.5 390 a1.5 1.5 0 1 0 3 0 a1.5 1.5 0 1 0 -3 0zM652.5 510 a1.5 1.5 0 1 0 3 0 a1.5 1.5 0 1 0 -3 0z" fill="black"></path>
            <path d="M616.5 390 a1.5 1.5 0 1 0 3 0 a1.5 1.5 0 1 0 -3 0zM628.5 426 a1.5 1.5 0 1 0 3 0 a1.5 1.5 0 1 0 -3 0zM628.5 438 a1.5 1.5 0 1 0 3 0 a1.5 1.5 0 1 0 -3 0zM664.5 546 a1.5 1.5 0 1 0 3 0 a1.5 1.5 0 1 0 -3 0zM652.5 522 a1.5 1.5 0 1 0 3 0 a1.5 1.5 0 1 0 -3 0z" fill="black"></path>
            <path d="M748.5 270 a1.5 1.5 0 1 0 3 0 a1.5 1.5 0 1 0 -3 0zM772.5 546 a1.5 1.5 0 1 0 3 0 a1.5 1.5 0 1 0 -3 0zM784.5 294 a1.5 1.5 0 1 0 3 0 a1.5 1.5 0 1 0 -3 0zM748.5 318 a1.5 1.5 0 1 0 3 0 a1.5 1.5 0 1 0 -3 0zM772.5 426 a1.5 1.5 0 1 0 3 0 a1.5 1.5 0 1 0 -3 0zM784.5 390 a1.5 1.5 0 1 0 3 0 a1.5 1.5 0 1 0 -3 0zM808.5 246 a1.5 1.5 0 1 0 3 0 a1.5 1.5 0 1 0 -3 0z" fill="black"></path>
            <path d="M616.5 282 a1.5 1.5 0 1 0 3 0 a1.5 1.5 0 1 0 -3 0zM628.5 282 a1.5 1.5 0 1 0 3 0 a1.5 1.5 0 1 0 -3 0zM628.5 498 a1.5 1.5 0 1 0 3 0 a1.5 1.5 0 1 0 -3 0zM604.5 450 a1.5 1.5 0 1 0 3 0 a1.5 1.5 0 1 0 -3 0zM604.5 462 a1.5 1.5 0 1 0 3 0 a1.5 1.5 0 1 0 -3 0zM580.5 258 a1.5 1.5 0 1 0 3 0 a1.5 1.5 0 1 0 -3 0zM604.5 246 a1.5 1.5 0 1 0 3 0 a1.5 1.5 0 1 0 -3 0z" fill="black"></path>
            <path d="M796.5 498 a1.5 1.5 0 1 0 3 0 a1.5 1.5 0 1 0 -3 0zM808.5 462 a1.5 1.5 0 1 0 3 0 a1.5 1.5 0 1 0 -3 0zM808.5 522 a1.5 1.5 0 1 0 3 0 a1.5 1.5 0 1 0 -3 0z" fill="black"></path>
            <path d="M616.5 522 a1.5 1.5 0 1 0 3 0 a1.5 1.5 0 1 0 -3 0z" fill="black"></path>
            <path d="M808.5 546 a1.5 1.5 0 1 0 3 0 a1.5 1.5 0 1 0 -3 0z" fill="black"></path>
            <path d="M604.5 510 a1.5 1.5 0 1 0 3 0 a1.5 1.5 0 1 0 -3 0z" fill="black"></path>
            <path d="M820.5 462 a1.5 1.5 0 1 0 3 0 a1.5 1.5 0 1 0 -3 0zM832.5 462 a1.5 1.5 0 1 0 3 0 a1.5 1.5 0 1 0 -3 0z" fill="black"></path>
            <path d="M568.5 258 a1.5 1.5 0 1 0 3 0 a1.5 1.5 0 1 0 -3 0zM568.5 342 a1.5 1.5 0 1 0 3 0 a1.5 1.5 0 1 0 -3 0zM568.5 354 a1.5 1.5 0 1 0 3 0 a1.5 1.5 0 1 0 -3 0zM580.5 270 a1.5 1.5 0 1 0 3 0 a1.5 1.5 0 1 0 -3 0zM568.5 378 a1.5 1.5 0 1 0 3 0 a1.5 1.5 0 1 0 -3 0zM580.5 282 a1.5 1.5 0 1 0 3 0 a1.5 1.5 0 1 0 -3 0zM580.5 402 a1.5 1.5 0 1 0 3 0 a1.5 1.5 0 1 0 -3 0z" fill="black"></path>
            <path d="M832.5 522 a1.5 1.5 0 1 0 3 0 a1.5 1.5 0 1 0 -3 0zM844.5 486 a1.5 1.5 0 1 0 3 0 a1.5 1.5 0 1 0 -3 0z" fill="black"></path>
            <path d="M580.5 426 a1.5 1.5 0 1 0 3 0 a1.5 1.5 0 1 0 -3 0zM568.5 402 a1.5 1.5 0 1 0 3 0 a1.5 1.5 0 1 0 -3 0z" fill="black"></path>
            <path d="M868.5 282 a1.5 1.5 0 1 0 3 0 a1.5 1.5 0 1 0 -3 0zM856.5 246 a1.5 1.5 0 1 0 3 0 a1.5 1.5 0 1 0 -3 0zM856.5 438 a1.5 1.5 0 1 0 3 0 a1.5 1.5 0 1 0 -3 0zM880.5 426 a1.5 1.5 0 1 0 3 0 a1.5 1.5 0 1 0 -3 0zM844.5 282 a1.5 1.5 0 1 0 3 0 a1.5 1.5 0 1 0 -3 0zM832.5 390 a1.5 1.5 0 1 0 3 0 a1.5 1.5 0 1 0 -3 0zM880.5 366 a1.5 1.5 0 1 0 3 0 a1.5 1.5 0 1 0 -3 0z" fill="black"></path>
            <path d="M544.5 342 a1.5 1.5 0 1 0 3 0 a1.5 1.5 0 1 0 -3 0zM556.5 330 a1.5 1.5 0 1 0 3 0 a1.5 1.5 0 1 0 -3 0zM556.5 462 a1.5 1.5 0 1 0 3 0 a1.5 1.5 0 1 0 -3 0zM532.5 342 a1.5 1.5 0 1 0 3 0 a1.5 1.5 0 1 0 -3 0zM556.5 378 a1.5 1.5 0 1 0 3 0 a1.5 1.5 0 1 0 -3 0z" fill="black"></path>
            <path d="M880.5 294 a1.5 1.5 0 1 0 3 0 a1.5 1.5 0 1 0 -3 0zM904.5 354 a1.5 1.5 0 1 0 3 0 a1.5 1.5 0 1 0 -3 0zM904.5 378 a1.5 1.5 0 1 0 3 0 a1.5 1.5 0 1 0 -3 0zM856.5 546 a1.5 1.5 0 1 0 3 0 a1.5 1.5 0 1 0 -3 0zM892.5 282 a1.5 1.5 0 1 0 3 0 a1.5 1.5 0 1 0 -3 0zM880.5 438 a1.5 1.5 0 1 0 3 0 a1.5 1.5 0 1 0 -3 0zM904.5 294 a1.5 1.5 0 1 0 3 0 a1.5 1.5 0 1 0 -3 0z" fill="black"></path>
            <path d="M532.5 234 a1.5 1.5 0 1 0 3 0 a1.5 1.5 0 1 0 -3 0zM508.5 222 a1.5 1.5 0 1 0 3 0 a1.5 1.5 0 1 0 -3 0zM556.5 486 a1.5 1.5 0 1 0 3 0 a1.5 1.5 0 1 0 -3 0zM532.5 390 a1.5 1.5 0 1 0 3 0 a1.5 1.5 0 1 0 -3 0zM544.5 258 a1.5 1.5 0 1 0 3 0 a1.5 1.5 0 1 0 -3 0zM520.5 282 a1.5 1.5 0 1 0 3 0 a1.5 1.5 0 1 0 -3 0zM544.5 306 a1.5 1.5 0 1 0 3 0 a1.5 1.5 0 1 0 -3 0zM520.5 330 a1.5 1.5 0 1 0 3 0 a1.5 1.5 0 1 0 -3 0z" fill="black"></path>
            <path d="M928.5 330 a1.5 1.5 0 1 0 3 0 a1.5 1.5 0 1 0 -3 0zM916.5 390 a1.5 1.5 0 1 0 3 0 a1.5 1.5 0 1 0 -3 0zM916.5 474 a1.5 1.5 0 1 0 3 0 a1.5 1.5 0 1 0 -3 0zM904.5 330 a1.5 1.5 0 1 0 3 0 a1.5 1.5 0 1 0 -3 0zM916.5 354 a1.5 1.5 0 1 0 3 0 a1.5 1.5 0 1 0 -3 0zM940.5 282 a1.5 1.5 0 1 0 3 0 a1.5 1.5 0 1 0 -3 0z" fill="black"></path>
            <path d="M532.5 462 a1.5 1.5 0 1 0 3 0 a1.5 1.5 0 1 0 -3 0z" fill="black"></path>
            <path d="M520.5 390 a1.5 1.5 0 1 0 3 0 a1.5 1.5 0 1 0 -3 0zM544.5 534 a1.5 1.5 0 1 0 3 0 a1.5 1.5 0 1 0 -3 0zM508.5 486 a1.5 1.5 0 1 0 3 0 a1.5 1.5 0 1 0 -3 0zM532.5 414 a1.5 1.5 0 1 0 3 0 a1.5 1.5 0 1 0 -3 0z" fill="black"></path>
            <path d="M952.5 390 a1.5 1.5 0 1 0 3 0 a1.5 1.5 0 1 0 -3 0zM928.5 438 a1.5 1.5 0 1 0 3 0 a1.5 1.5 0 1 0 -3 0zM916.5 486 a1.5 1.5 0 1 0 3 0 a1.5 1.5 0 1 0 -3 0zM928.5 450 a1.5 1.5 0 1 0 3 0 a1.5 1.5 0 1 0 -3 0zM928.5 462 a1.5 1.5 0 1 0 3 0 a1.5 1.5 0 1 0 -3 0z" fill="black"></path>
            <path d="M520.5 510 a1.5 1.5 0 1 0 3 0 a1.5 1.5 0 1 0 -3 0zM508.5 498 a1.5 1.5 0 1 0 3 0 a1.5 1.5 0 1 0 -3 0z" fill="black"></path>
            <path d="M952.5 246 a1.5 1.5 0 1 0 3 0 a1.5 1.5 0 1 0 -3 0zM964.5 234 a1.5 1.5 0 1 0 3 0 a1.5 1.5 0 1 0 -3 0zM952.5 306 a1.5 1.5 0 1 0 3 0 a1.5 1.5 0 1 0 -3 0zM940.5 246 a1.5 1.5 0 1 0 3 0 a1.5 1.5 0 1 0 -3 0zM952.5 330 a1.5 1.5 0 1 0 3 0 a1.5 1.5 0 1 0 -3 0zM952.5 342 a1.5 1.5 0 1 0 3 0 a1.5 1.5 0 1 0 -3 0zM952.5 354 a1.5 1.5 0 1 0 3 0 a1.5 1.5 0 1 0 -3 0zM952.5 366 a1.5 1.5 0 1 0 3 0 a1.5 1.5 0 1 0 -3 0z" fill="black"></path>
            <path d="M508.5 534 a1.5 1.5 0 1 0 3 0 a1.5 1.5 0 1 0 -3 0z" fill="black"></path>
            <path d="M976.5 222 a1.5 1.5 0 1 0 3 0 a1.5 1.5 0 1 0 -3 0zM988.5 222 a1.5 1.5 0 1 0 3 0 a1.5 1.5 0 1 0 -3 0zM1000.5 222 a1.5 1.5 0 1 0 3 0 a1.5 1.5 0 1 0 -3 0z" fill="black"></path>
            <path d="M520.5 366 a1.5 1.5 0 1 0 3 0 a1.5 1.5 0 1 0 -3 0zM496.5 438 a1.5 1.5 0 1 0 3 0 a1.5 1.5 0 1 0 -3 0zM484.5 510 a1.5 1.5 0 1 0 3 0 a1.5 1.5 0 1 0 -3 0zM496.5 366 a1.5 1.5 0 1 0 3 0 a1.5 1.5 0 1 0 -3 0zM484.5 450 a1.5 1.5 0 1 0 3 0 a1.5 1.5 0 1 0 -3 0z" fill="black"></path>
            <path d="M988.5 282 a1.5 1.5 0 1 0 3 0 a1.5 1.5 0 1 0 -3 0zM1000.5 258 a1.5 1.5 0 1 0 3 0 a1.5 1.5 0 1 0 -3 0zM1012.5 270 a1.5 1.5 0 1 0 3 0 a1.5 1.5 0 1 0 -3 0zM1000.5 366 a1.5 1.5 0 1 0 3 0 a1.5 1.5 0 1 0 -3 0zM1000.5 390 a1.5 1.5 0 1 0 3 0 a1.5 1.5 0 1 0 -3 0zM1012.5 294 a1.5 1.5 0 1 0 3 0 a1.5 1.5 0 1 0 -3 0z" fill="black"></path>
            <path d="M484.5 282 a1.5 1.5 0 1 0 3 0 a1.5 1.5 0 1 0 -3 0zM460.5 366 a1.5 1.5 0 1 0 3 0 a1.5 1.5 0 1 0 -3 0zM496.5 306 a1.5 1.5 0 1 0 3 0 a1.5 1.5 0 1 0 -3 0zM496.5 282 a1.5 1.5 0 1 0 3 0 a1.5 1.5 0 1 0 -3 0zM460.5 282 a1.5 1.5 0 1 0 3 0 a1.5 1.5 0 1 0 -3 0zM484.5 522 a1.5 1.5 0 1 0 3 0 a1.5 1.5 0 1 0 -3 0zM460.5 462 a1.5 1.5 0 1 0 3 0 a1.5 1.5 0 1 0 -3 0z" fill="black"></path>
            <path d="M976.5 462 a1.5 1.5 0 1 0 3 0 a1.5 1.5 0 1 0 -3 0z" fill="black"></path>
            <path d="M460.5 522 a1.5 1.5 0 1 0 3 0 a1.5 1.5 0 1 0 -3 0z" fill="black"></path>
            <path d="M1000.5 354 a1.5 1.5 0 1 0 3 0 a1.5 1.5 0 1 0 -3 0zM976.5 438 a1.5 1.5 0 1 0 3 0 a1.5 1.5 0 1 0 -3 0zM1000.5 426 a1.5 1.5 0 1 0 3 0 a1.5 1.5 0 1 0 -3 0zM1000.5 402 a1.5 1.5 0 1 0 3 0 a1.5 1.5 0 1 0 -3 0zM1012.5 354 a1.5 1.5 0 1 0 3 0 a1.5 1.5 0 1 0 -3 0z" fill="black"></path>
            <path d="M448.5 462 a1.5 1.5 0 1 0 3 0 a1.5 1.5 0 1 0 -3 0z" fill="black"></path>
            <path d="M1024.5 318 a1.5 1.5 0 1 0 3 0 a1.5 1.5 0 1 0 -3 0zM1036.5 330 a1.5 1.5 0 1 0 3 0 a1.5 1.5 0 1 0 -3 0zM1036.5 354 a1.5 1.5 0 1 0 3 0 a1.5 1.5 0 1 0 -3 0zM1036.5 366 a1.5 1.5 0 1 0 3 0 a1.5 1.5 0 1 0 -3 0zM1000.5 438 a1.5 1.5 0 1 0 3 0 a1.5 1.5 0 1 0 -3 0zM1012.5 318 a1.5 1.5 0 1 0 3 0 a1.5 1.5 0 1 0 -3 0z" fill="black"></path>
            <path d="M436.5 282 a1.5 1.5 0 1 0 3 0 a1.5 1.5 0 1 0 -3 0zM424.5 414 a1.5 1.5 0 1 0 3 0 a1.5 1.5 0 1 0 -3 0zM412.5 330 a1.5 1.5 0 1 0 3 0 a1.5 1.5 0 1 0 -3 0zM448.5 366 a1.5 1.5 0 1 0 3 0 a1.5 1.5 0 1 0 -3 0zM424.5 366 a1.5 1.5 0 1 0 3 0 a1.5 1.5 0 1 0 -3 0zM448.5 258 a1.5 1.5 0 1 0 3 0 a1.5 1.5 0 1 0 -3 0zM460.5 294 a1.5 1.5 0 1 0 3 0 a1.5 1.5 0 1 0 -3 0z" fill="black"></path>
            <path d="M1036.5 402 a1.5 1.5 0 1 0 3 0 a1.5 1.5 0 1 0 -3 0zM1036.5 414 a1.5 1.5 0 1 0 3 0 a1.5 1.5 0 1 0 -3 0z" fill="black"></path>
            <path d="M412.5 438 a1.5 1.5 0 1 0 3 0 a1.5 1.5 0 1 0 -3 0zM400.5 414 a1.5 1.5 0 1 0 3 0 a1.5 1.5 0 1 0 -3 0zM412.5 474 a1.5 1.5 0 1 0 3 0 a1.5 1.5 0 1 0 -3 0zM412.5 498 a1.5 1.5 0 1 0 3 0 a1.5 1.5 0 1 0 -3 0z" fill="black"></path>
            <path d="M988.5 534 a1.5 1.5 0 1 0 3 0 a1.5 1.5 0 1 0 -3 0z" fill="black"></path>
            <path d="M412.5 522 a1.5 1.5 0 1 0 3 0 a1.5 1.5 0 1 0 -3 0z" fill="black"></path>
            <path d="M1048.5 342 a1.5 1.5 0 1 0 3 0 a1.5 1.5 0 1 0 -3 0zM1000.5 510 a1.5 1.5 0 1 0 3 0 a1.5 1.5 0 1 0 -3 0zM1036.5 462 a1.5 1.5 0 1 0 3 0 a1.5 1.5 0 1 0 -3 0zM1072.5 330 a1.5 1.5 0 1 0 3 0 a1.5 1.5 0 1 0 -3 0zM1036.5 438 a1.5 1.5 0 1 0 3 0 a1.5 1.5 0 1 0 -3 0zM1060.5 366 a1.5 1.5 0 1 0 3 0 a1.5 1.5 0 1 0 -3 0z" fill="black"></path>
            <path d="M388.5 270 a1.5 1.5 0 1 0 3 0 a1.5 1.5 0 1 0 -3 0zM400.5 366 a1.5 1.5 0 1 0 3 0 a1.5 1.5 0 1 0 -3 0zM412.5 294 a1.5 1.5 0 1 0 3 0 a1.5 1.5 0 1 0 -3 0zM388.5 486 a1.5 1.5 0 1 0 3 0 a1.5 1.5 0 1 0 -3 0zM388.5 498 a1.5 1.5 0 1 0 3 0 a1.5 1.5 0 1 0 -3 0zM400.5 378 a1.5 1.5 0 1 0 3 0 a1.5 1.5 0 1 0 -3 0zM376.5 246 a1.5 1.5 0 1 0 3 0 a1.5 1.5 0 1 0 -3 0z" fill="black"></path>
            <path d="M1036.5 486 a1.5 1.5 0 1 0 3 0 a1.5 1.5 0 1 0 -3 0zM1012.5 534 a1.5 1.5 0 1 0 3 0 a1.5 1.5 0 1 0 -3 0z" fill="black"></path>
            <path d="M388.5 522 a1.5 1.5 0 1 0 3 0 a1.5 1.5 0 1 0 -3 0z" fill="black"></path>
            <path d="M1072.5 390 a1.5 1.5 0 1 0 3 0 a1.5 1.5 0 1 0 -3 0zM1084.5 378 a1.5 1.5 0 1 0 3 0 a1.5 1.5 0 1 0 -3 0zM1084.5 402 a1.5 1.5 0 1 0 3 0 a1.5 1.5 0 1 0 -3 0zM1060.5 474 a1.5 1.5 0 1 0 3 0 a1.5 1.5 0 1 0 -3 0z" fill="black"></path>
            <path d="M376.5 294 a1.5 1.5 0 1 0 3 0 a1.5 1.5 0 1 0 -3 0zM388.5 462 a1.5 1.5 0 1 0 3 0 a1.5 1.5 0 1 0 -3 0zM352.5 246 a1.5 1.5 0 1 0 3 0 a1.5 1.5 0 1 0 -3 0z" fill="black"></path>
            <path d="M1036.5 546 a1.5 1.5 0 1 0 3 0 a1.5 1.5 0 1 0 -3 0z" fill="black"></path>
            <path d="M364.5 318 a1.5 1.5 0 1 0 3 0 a1.5 1.5 0 1 0 -3 0zM352.5 402 a1.5 1.5 0 1 0 3 0 a1.5 1.5 0 1 0 -3 0zM340.5 282 a1.5 1.5 0 1 0 3 0 a1.5 1.5 0 1 0 -3 0z" fill="black"></path>
            <path d="M1048.5 522 a1.5 1.5 0 1 0 3 0 a1.5 1.5 0 1 0 -3 0zM1060.5 522 a1.5 1.5 0 1 0 3 0 a1.5 1.5 0 1 0 -3 0zM1060.5 546 a1.5 1.5 0 1 0 3 0 a1.5 1.5 0 1 0 -3 0z" fill="black"></path>
            <path d="M352.5 342 a1.5 1.5 0 1 0 3 0 a1.5 1.5 0 1 0 -3 0zM340.5 330 a1.5 1.5 0 1 0 3 0 a1.5 1.5 0 1 0 -3 0zM340.5 462 a1.5 1.5 0 1 0 3 0 a1.5 1.5 0 1 0 -3 0zM340.5 366 a1.5 1.5 0 1 0 3 0 a1.5 1.5 0 1 0 -3 0zM352.5 426 a1.5 1.5 0 1 0 3 0 a1.5 1.5 0 1 0 -3 0zM340.5 438 a1.5 1.5 0 1 0 3 0 a1.5 1.5 0 1 0 -3 0z" fill="black"></path>
            <path d="M1072.5 474 a1.5 1.5 0 1 0 3 0 a1.5 1.5 0 1 0 -3 0zM1096.5 438 a1.5 1.5 0 1 0 3 0 a1.5 1.5 0 1 0 -3 0zM1084.5 498 a1.5 1.5 0 1 0 3 0 a1.5 1.5 0 1 0 -3 0zM1060.5 498 a1.5 1.5 0 1 0 3 0 a1.5 1.5 0 1 0 -3 0z" fill="black"></path>
            <path d="M316.5 246 a1.5 1.5 0 1 0 3 0 a1.5 1.5 0 1 0 -3 0zM340.5 294 a1.5 1.5 0 1 0 3 0 a1.5 1.5 0 1 0 -3 0zM328.5 222 a1.5 1.5 0 1 0 3 0 a1.5 1.5 0 1 0 -3 0zM304.5 258 a1.5 1.5 0 1 0 3 0 a1.5 1.5 0 1 0 -3 0zM340.5 498 a1.5 1.5 0 1 0 3 0 a1.5 1.5 0 1 0 -3 0zM340.5 378 a1.5 1.5 0 1 0 3 0 a1.5 1.5 0 1 0 -3 0zM340.5 234 a1.5 1.5 0 1 0 3 0 a1.5 1.5 0 1 0 -3 0z" fill="black"></path>
            <path d="M316.5 306 a1.5 1.5 0 1 0 3 0 a1.5 1.5 0 1 0 -3 0zM304.5 450 a1.5 1.5 0 1 0 3 0 a1.5 1.5 0 1 0 -3 0zM292.5 450 a1.5 1.5 0 1 0 3 0 a1.5 1.5 0 1 0 -3 0zM304.5 366 a1.5 1.5 0 1 0 3 0 a1.5 1.5 0 1 0 -3 0zM280.5 246 a1.5 1.5 0 1 0 3 0 a1.5 1.5 0 1 0 -3 0zM304.5 342 a1.5 1.5 0 1 0 3 0 a1.5 1.5 0 1 0 -3 0z" fill="black"></path>
        </mask>
    </defs>
</svg>
